<?xml version="1.0" encoding="UTF-8"?>
<svg width="186px" height="186px" viewBox="0 0 186 186" version="1.1" xmlns="http://www.w3.org/2000/svg" xmlns:xlink="http://www.w3.org/1999/xlink">
    <!-- Generator: Sketch 45.2 (43514) - http://www.bohemiancoding.com/sketch -->
    <title>Oval</title>
    <desc>Created with Sketch.</desc>
    <defs>
        <linearGradient x1="14.3019475%" y1="78.9102922%" x2="85.1436492%" y2="16.9331212%" id="linearGradient-1">
            <stop stop-color="#4E6171" offset="0%"></stop>
            <stop stop-color="#0C1528" offset="100%"></stop>
        </linearGradient>
    </defs>
    <g id="Page-1" stroke="none" stroke-width="1" fill="none" fill-rule="evenodd">
        <circle id="Oval" fill="url(#linearGradient-1)" cx="93" cy="93" r="93"></circle>
        <path d="M117.929473,94.4981251 C117.929473,90.5646092 120.351684,87.4672936 123.992501,85.3374204 C123.332579,83.1475507 122.466433,81.043926 121.39781,79.0677936 C117.314546,80.13648 114.011189,78.5390751 111.23277,75.7567407 C108.454351,72.9819058 107.603202,69.6783525 108.671825,65.5910958 C106.69581,64.5224094 104.59231,63.6487114 102.402571,63 C100.272825,66.6372835 96.4220331,69.0558895 92.4962504,69.0558895 C88.5667182,69.0558895 84.7196762,66.6372835 82.5861802,63 C80.3926913,63.6487114 78.2966909,64.5224094 76.3206761,65.5910958 C77.3892989,69.6783525 76.5418998,72.9819058 73.7559814,75.7567407 C70.9813117,78.5390751 67.677955,80.13648 63.5909416,79.0677936 C62.5223188,81.043926 61.6524223,83.1475507 61,85.3374204 C64.637067,87.4672936 67.0555291,90.5646092 67.0555291,94.4981251 C67.0555291,98.4241414 64.637067,102.275162 61,104.408785 C61.6561719,106.598655 62.5223188,108.69853 63.5909416,110.678412 C67.677955,109.609726 70.9813117,110.457175 73.7559814,113.23576 C76.5344007,116.018094 77.3892989,119.321648 76.3206761,123.401405 C78.2966909,124.470091 80.3964409,125.343789 82.5899298,126 C84.7196762,122.351467 88.5704678,119.936611 92.5,119.936611 C96.4257826,119.936611 100.276574,122.355217 102.41007,126 C104.59981,125.340039 106.69956,124.470091 108.679324,123.401405 C107.610701,119.321648 108.4581,116.018094 111.240269,113.23576 C114.018688,110.460925 117.322045,108.86352 121.405309,109.924707 C122.473932,107.948574 123.343828,105.852449 124,103.65508 C120.351684,101.521457 117.929473,98.4241414 117.929473,94.4981251 Z M92.4962504,108.19231 C84.9296512,108.19231 78.7991311,102.061425 78.7991311,94.4981251 C78.7991311,86.9310755 84.9334008,80.7964407 92.4962504,80.7964407 C100.06285,80.7964407 106.18962,86.9348253 106.18962,94.4981251 C106.18962,102.065175 100.06285,108.19231 92.4962504,108.19231 Z" id="Shape" fill="#FFFFFF" fill-rule="nonzero" transform="translate(92.500000, 94.500000) rotate(11.000000) translate(-92.500000, -94.500000) "></path>
        <path d="M141.95879,89.4134113 L155,89.4134113 C154.576161,82.5654376 153.089463,76.0112283 150.644236,69.9335701 L139.194053,76.5530604 C140.654669,80.6200648 141.613198,84.9286087 141.95879,89.4134113 Z M119.247522,36.6859724 C113.020344,33.7418007 106.271518,31.744203 99.1249348,31.0065281 L99.1249348,44.199812 C103.904538,44.8330374 108.468962,46.1256006 112.713876,48.0187487 L119.247522,36.6859724 Z M133.208138,64.9330478 L144.560511,58.3723104 C140.706834,52.6406413 135.888106,47.633591 130.397757,43.4556089 L123.838028,54.8275538 C127.41784,57.739085 130.560772,61.1467516 133.208138,64.9330478 Z M92.5978091,142.937278 C65.2308294,142.937278 43.0412102,120.728692 43.0412102,93.3237414 C43.0412102,68.1383434 61.8009911,47.3920514 86.0837246,44.1932839 L86.0837246,31 C54.5696401,34.2640485 30,60.9182682 30,93.3237414 C30,127.942239 58.0255608,156 92.6043297,156 C124.059729,156 150.031299,132.740391 154.45879,102.469605 L141.280647,102.469605 C136.990089,125.494203 116.841419,142.937278 92.5978091,142.937278 Z" id="Shape" fill="#FFFFFF" fill-rule="nonzero" transform="translate(92.500000, 93.500000) rotate(-90.000000) translate(-92.500000, -93.500000) "></path>
    </g>
</svg>