<?xml version="1.0" encoding="UTF-8"?>
<svg width="125px" height="125px" viewBox="0 0 125 125" version="1.1" xmlns="http://www.w3.org/2000/svg" xmlns:xlink="http://www.w3.org/1999/xlink">
    <!-- Generator: Sketch 45.2 (43514) - http://www.bohemiancoding.com/sketch -->
    <title>Icon-Mask</title>
    <desc>Created with Sketch.</desc>
    <defs></defs>
    <g id="Page-1" stroke="none" stroke-width="1" fill="none" fill-rule="evenodd">
        <g id="Icon-Mask" fill-rule="nonzero" fill="#FFFFFF">
            <path d="M87.9294727,63.4981251 C87.9294727,59.5646092 90.3516843,56.4672936 93.9925009,54.3374204 C93.3325795,52.1475507 92.4664326,50.043926 91.3978098,48.0677936 C87.3145459,49.13648 84.0111891,47.5390751 81.2327699,44.7567407 C78.4543507,41.9819058 77.603202,38.6783525 78.6718248,34.5910958 C76.69581,33.5224094 74.5923104,32.6487114 72.4025711,32 C70.2728247,35.6372835 66.4220331,38.0558895 62.4962504,38.0558895 C58.5667182,38.0558895 54.7196762,35.6372835 52.5861802,32 C50.3926913,32.6487114 48.2966909,33.5224094 46.3206761,34.5910958 C47.3892989,38.6783525 46.5418998,41.9819058 43.7559814,44.7567407 C40.9813117,47.5390751 37.677955,49.13648 33.5909416,48.0677936 C32.5223188,50.043926 31.6524223,52.1475507 31,54.3374204 C34.637067,56.4672936 37.0555291,59.5646092 37.0555291,63.4981251 C37.0555291,67.4241414 34.637067,71.2751622 31,73.4087852 C31.6561719,75.5986548 32.5223188,77.6985298 33.5909416,79.678412 C37.677955,78.6097256 40.9813117,79.4571752 43.7559814,82.2357598 C46.5344007,85.0180942 47.3892989,88.3216475 46.3206761,92.4014047 C48.2966909,93.4700911 50.3964409,94.3437891 52.5899298,95 C54.7196762,91.3514672 58.5704678,88.9366109 62.5,88.9366109 C66.4257826,88.9366109 70.2765742,91.355217 72.4100702,95 C74.5998095,94.3400393 76.6995596,93.4700911 78.6793239,92.4014047 C77.6107011,88.3216475 78.4581002,85.0180942 81.240269,82.2357598 C84.0186883,79.4609249 87.322045,77.86352 91.4053089,78.9247069 C92.4739317,76.9485745 93.3438281,74.8524493 94,72.6550801 C90.3516843,70.5214571 87.9294727,67.4241414 87.9294727,63.4981251 Z M62.4962504,77.19231 C54.9296512,77.19231 48.7991311,71.0614249 48.7991311,63.4981251 C48.7991311,55.9310755 54.9334008,49.7964407 62.4962504,49.7964407 C70.0628497,49.7964407 76.1896203,55.9348253 76.1896203,63.4981251 C76.1896203,71.0651747 70.0628497,77.19231 62.4962504,77.19231 Z" id="Shape" transform="translate(62.500000, 63.500000) rotate(11.000000) translate(-62.500000, -63.500000) "></path>
            <path d="M111.95879,58.4134113 L125,58.4134113 C124.576161,51.5654376 123.089463,45.0112283 120.644236,38.9335701 L109.194053,45.5530604 C110.654669,49.6200648 111.613198,53.9286087 111.95879,58.4134113 Z M89.2475222,5.68597243 C83.0203443,2.74180071 76.271518,0.74420305 69.1249348,0.00652809693 L69.1249348,13.199812 C73.9045383,13.8330374 78.4689619,15.1256006 82.7138758,17.0187487 L89.2475222,5.68597243 Z M103.208138,33.9330478 L114.560511,27.3723104 C110.706834,21.6406413 105.888106,16.633591 100.397757,12.4556089 L93.8380282,23.8275538 C97.4178404,26.739085 100.560772,30.1467516 103.208138,33.9330478 Z M62.5978091,111.937278 C35.2308294,111.937278 13.0412102,89.7286923 13.0412102,62.3237414 C13.0412102,37.1383434 31.8009911,16.3920514 56.0837246,13.1932839 L56.0837246,0 C24.5696401,3.26404846 0,29.9182682 0,62.3237414 C0,96.9422394 28.0255608,125 62.6043297,125 C94.0597287,125 120.031299,101.740391 124.45879,71.4696052 L111.280647,71.4696052 C106.990089,94.494203 86.8414189,111.937278 62.5978091,111.937278 Z" id="Shape" transform="translate(62.500000, 62.500000) rotate(-90.000000) translate(-62.500000, -62.500000) "></path>
        </g>
    </g>
</svg>